<svg width="64" height="64" viewBox="0 0 64 64" fill="inherit" xmlns="http://www.w3.org/2000/svg">
<path d="M18.0627 10.2375C17.4377 10.625 11.1502 17.0375 11.0002 17.425C10.6877 18.2625 11.2627 19.0625 12.2002 19.0625H12.7502L16.3752 15.4375C20.0002 11.8 20.0002 11.8 20.0002 11.2625C20.0002 10.2125 18.9627 9.6625 18.0627 10.2375Z" fill="inherit"/>
<path d="M44.3625 10.3625C44.075 10.65 44 10.8375 44 11.2625C44 11.8 44 11.8 47.625 15.4375L51.25 19.0625H51.8C52.7375 19.0625 53.3125 18.2625 53 17.425C52.8375 17.0125 46.375 10.45 45.85 10.175C45.3 9.8875 44.775 9.95 44.3625 10.3625Z" fill="inherit"/>
<path d="M30.4126 12.6374C21.2126 13.3374 13.6626 20.4624 12.3751 29.6374C12.2876 30.2124 12.2251 31.4499 12.2251 32.3749C12.2251 33.2999 12.2876 34.5374 12.3751 35.1124C13.6001 43.8374 20.5376 50.7749 29.2626 51.9999C30.6126 52.1999 33.3876 52.1999 34.7376 51.9999C42.6501 50.8874 49.1751 45.0749 51.1751 37.3624C51.6126 35.6499 51.7751 34.3124 51.7751 32.3749C51.7751 28.8499 50.9751 25.7249 49.3126 22.7499C45.4876 15.9374 38.2001 12.0374 30.4126 12.6374ZM34.6876 15.3124C36.4501 15.5874 37.9251 16.0624 39.5626 16.8624C43.0626 18.5749 45.8001 21.2999 47.5001 24.7874C48.7126 27.2874 49.2501 29.5874 49.2501 32.3749C49.2501 35.1624 48.7126 37.4624 47.5001 39.9624C45.0376 45.0124 40.2751 48.5374 34.6876 49.4374C33.2501 49.6749 30.7501 49.6749 29.3126 49.4374C23.7126 48.5374 18.9751 45.0249 16.5001 39.9624C15.2876 37.4624 14.7501 35.1624 14.7501 32.3749C14.7501 29.5874 15.2876 27.2874 16.5001 24.7874C18.9501 19.7749 23.6626 16.2499 29.1876 15.3249C30.5501 15.0874 33.3126 15.0874 34.6876 15.3124Z" fill="inherit"/>
<path d="M31.3125 23.8122L31 24.1122V29.4372V34.7622L36.2625 34.7247L41.525 34.6872L41.7625 34.3872C42.075 34.0122 42.0625 33.6122 41.7375 33.1997L41.4875 32.8747H37.175H32.875V28.4997V24.1122L32.5625 23.8122C32.4 23.6372 32.1125 23.4997 31.9375 23.4997C31.7625 23.4997 31.475 23.6372 31.3125 23.8122Z" fill="inherit"/>
</svg>
