<!DOCTYPE svg PUBLIC "-//W3C//DTD SVG 1.1//EN" "http://www.w3.org/Graphics/SVG/1.1/DTD/svg11.dtd">

<!-- Uploaded to: SVG Repo, www.svgrepo.com, Transformed by: SVG Repo Mixer Tools -->
<svg fill="#ffcf4d" height="40px" width="50px" version="1.1" id="Layer_1" xmlns="http://www.w3.org/2000/svg" xmlns:xlink="http://www.w3.org/1999/xlink" viewBox="0 0 512 512" xml:space="preserve">

<g id="SVGRepo_bgCarrier" stroke-width="0"/>

<g id="SVGRepo_tracerCarrier" stroke-linecap="round" stroke-linejoin="round"/>

<g id="SVGRepo_iconCarrier"> <g> <g> <path d="M480.97,89.212c-17.11,0-31.03,13.92-31.03,31.03c0,8.555,3.48,16.313,9.098,21.931l-94.431,94.433l-90.909-90.909 c8.048-5.612,13.334-14.921,13.334-25.454c0-17.11-13.92-31.03-31.03-31.03s-31.03,13.92-31.03,31.03 c0,10.533,5.286,19.842,13.334,25.454l-90.909,90.909l-94.431-94.433c5.618-5.618,9.098-13.376,9.098-21.931 c0-17.11-13.92-31.03-31.03-31.03S0,103.132,0,120.242c0,14.428,9.911,26.551,23.273,30.009v272.536h465.455V150.252 C502.089,146.793,512,134.67,512,120.242C512,103.132,498.08,89.212,480.97,89.212z"/> </g> </g> </g>

</svg>