<svg width="51" height="43" viewBox="0 0 51 43" fill="none" xmlns="http://www.w3.org/2000/svg">
<path d="M47.0769 0H3.92308C2.88261 0 1.88476 0.411849 1.14904 1.14495C0.413323 1.87804 0 2.87234 0 3.90909V39.0909C0 40.1277 0.413323 41.122 1.14904 41.8551C1.88476 42.5882 2.88261 43 3.92308 43H47.0769C48.1174 43 49.1152 42.5882 49.851 41.8551C50.5867 41.122 51 40.1277 51 39.0909V3.90909C51 2.87234 50.5867 1.87804 49.851 1.14495C49.1152 0.411849 48.1174 0 47.0769 0ZM32.3654 11.7273C32.9473 11.7273 33.5162 11.8992 34 12.2214C34.4839 12.5435 34.861 13.0014 35.0837 13.5371C35.3064 14.0729 35.3647 14.6623 35.2512 15.2311C35.1376 15.7998 34.8574 16.3222 34.4459 16.7322C34.0344 17.1422 33.5102 17.4215 32.9394 17.5346C32.3686 17.6477 31.7771 17.5896 31.2394 17.3677C30.7018 17.1458 30.2423 16.7701 29.9189 16.2879C29.5956 15.8058 29.4231 15.2389 29.4231 14.6591C29.4231 13.8815 29.7331 13.1358 30.2849 12.586C30.8367 12.0362 31.585 11.7273 32.3654 11.7273ZM47.0769 39.0909H3.92308V29.4868L15.2853 18.1626C15.4675 17.9809 15.6838 17.8367 15.9219 17.7384C16.1601 17.64 16.4153 17.5894 16.6731 17.5894C16.9309 17.5894 17.1861 17.64 17.4242 17.7384C17.6624 17.8367 17.8787 17.9809 18.0609 18.1626L34.5721 34.6101C34.9402 34.9769 35.4394 35.1829 35.9599 35.1829C36.4804 35.1829 36.9796 34.9769 37.3477 34.6101C37.7158 34.2434 37.9225 33.7459 37.9225 33.2273C37.9225 32.7086 37.7158 32.2112 37.3477 31.8444L33.0176 27.5322L36.5337 24.0262C36.9015 23.66 37.4002 23.4542 37.9202 23.4542C38.4402 23.4542 38.939 23.66 39.3068 24.0262L47.0769 31.7785V39.0909Z" fill="#006FFF"/>
</svg>
