<svg width="67" height="45" viewBox="0 0 67 45" fill="none" xmlns="http://www.w3.org/2000/svg">
<path d="M65.4042 7.19749C65.0213 5.84088 64.2744 4.6041 63.2379 3.61031C62.2013 2.61652 60.9113 1.90039 59.4963 1.53324C54.316 0.178741 33.4667 0.178741 33.4667 0.178741C33.4667 0.178741 12.6164 0.219741 7.43605 1.57424C6.02101 1.94142 4.73099 2.65758 3.69444 3.65142C2.6579 4.64525 1.91101 5.88208 1.52815 7.23874C-0.0387899 16.0632 -0.646634 29.5097 1.57118 37.9812C1.95408 39.3379 2.70099 40.5746 3.73752 41.5684C4.77406 42.5622 6.06407 43.2783 7.47908 43.6455C12.6594 45 33.5092 45 33.5092 45C33.5092 45 54.3587 45 59.5388 43.6455C60.9539 43.2784 62.244 42.5623 63.2805 41.5685C64.3171 40.5747 65.0641 39.3379 65.447 37.9812C67.0997 29.1442 67.609 15.706 65.4042 7.19749Z" fill="#FF0000"/>
<path d="M26.8296 32.1939L44.1257 22.5894L26.8296 12.9849V32.1939Z" fill="white"/>
</svg>
